<?xml version="1.0" encoding="iso-8859-1"?>
<!-- Generator: Adobe Illustrator 16.0.0, SVG Export Plug-In . SVG Version: 6.00 Build 0)  -->
<!DOCTYPE svg PUBLIC "-//W3C//DTD SVG 1.1//EN" "http://www.w3.org/Graphics/SVG/1.1/DTD/svg11.dtd">
<svg version="1.1" id="Capa_1" xmlns="http://www.w3.org/2000/svg" xmlns:xlink="http://www.w3.org/1999/xlink" x="0px" y="0px"
	 width="568.668px" height="568.668px" viewBox="0 0 568.668 568.668" style="enable-background:new 0 0 568.668 568.668;"
	 xml:space="preserve">
<g>
	<g>
		<path d="M48.836,536.205c2.543,0.707,5.097,1.043,7.612,1.043c12.594,0,24.145-8.367,27.645-21.105l51.781-188.658h8.941
			l47.975,188.152c3.309,12.957,14.975,21.611,27.779,21.611c2.343,0,4.733-0.297,7.105-0.9
			c15.348-3.92,24.624-19.535,20.712-34.883l-53.129-208.387V189.746l133.167-23.428c15.606-2.744,26.039-17.614,23.285-33.229
			c-0.277-1.559-0.756-3.012-1.263-4.456c0.211-0.258,0.564-0.392,0.736-0.679c1.712,0.545,3.529,0.822,5.384,0.746
			c3.558-0.153,6.876-1.473,9.343-3.739c2.582-2.372,3.939-5.47,3.787-8.721c-0.029-0.545-0.153-1.062-0.277-1.587l22.348-3.156
			l166.865-12.718c4.532-0.335,7.507-2.391,7.392-5.116c-0.038-0.86-0.325-1.664-0.812-2.352c2.161-0.976,3.548-2.936,3.452-5.154
			c-0.134-3.041-3.739-5.374-7.918-5.192l-164.953,7.152c-1.415,0.058-2.467-0.019-2.993-0.057l-0.746-0.526
			c-1.425-1.023-4.369-1.138-6.578-1.042L355.64,87.8c-3.5,0.134-7.976,2.171-10.386,4.724l-2.026,2.151
			c-1.731,1.827-5.116,4.293-7.393,5.403l-17.212,8.329c-1.521,0.765-3.596,1.817-5.278,2.305c-0.411,0.124-0.766,0.153-1.109,0.191
			c-0.144,0.019-0.325,0.077-0.459,0.077c-2.324-0.038-5.078-1.042-7.985-2.955c-2.696-1.797-7.334-3.251-10.949-2.648
			l-65.12,10.997c-5.728,0.976-9.897,5.728-10.748,11.284l-36.605,6.445c-4.112-2.276-8.769-3.682-13.799-3.682h-51.915
			c-15.845,0-28.688,12.852-28.688,28.688v133.435L28.764,500.957C24.566,516.238,33.555,532.025,48.836,536.205z M354.76,116.727
			l9.648-1.368c0.096,0.354,0.172,0.727,0.182,1.1c0.076,1.721-0.67,3.385-2.133,4.705c-1.578,1.454-3.738,2.295-6.101,2.41
			c-1.616,0.058-3.099-0.373-4.446-0.995c-0.173-0.708-0.325-1.415-0.718-2.075l-1.53-2.611
			C351.46,117.377,353.335,116.928,354.76,116.727z"/>
		<path d="M121.922,537.248v-19.125c0-5.289-4.274-9.562-9.562-9.562s-9.562,4.273-9.562,9.562v19.125
			c0,2.381-10.174,9.562-28.688,9.562H9.562c-5.278,0-9.562,4.273-9.562,9.562c0,5.287,4.284,9.562,9.562,9.562h64.547
			C101.372,565.936,121.922,553.6,121.922,537.248z"/>
		<path d="M240.268,565.936c27.263,0,47.812-12.336,47.812-28.688v-19.125c0-5.289-4.274-9.562-9.562-9.562
			s-9.562,4.273-9.562,9.562v19.125c0,2.381-10.184,9.562-28.688,9.562h-64.547c-5.278,0-9.562,4.273-9.562,9.562
			c0,5.287,4.284,9.562,9.562,9.562H240.268z"/>
		<path d="M140.617,118.343c31.738,0,57.433-25.589,57.748-57.241L157.982,81.68c-22.568-10.815-17.366-33.01-17.366-33.01
			l45.881-22.931c-10.557-13.895-27.09-23.007-45.881-23.007c-31.919,0-57.796,25.886-57.796,57.796
			C82.821,92.438,108.688,118.343,140.617,118.343z"/>
	</g>
</g>
<g>
</g>
<g>
</g>
<g>
</g>
<g>
</g>
<g>
</g>
<g>
</g>
<g>
</g>
<g>
</g>
<g>
</g>
<g>
</g>
<g>
</g>
<g>
</g>
<g>
</g>
<g>
</g>
<g>
</g>
</svg>
