<?xml version="1.0" encoding="iso-8859-1"?>
<!-- Generator: Adobe Illustrator 19.0.0, SVG Export Plug-In . SVG Version: 6.00 Build 0)  -->
<svg version="1.1" id="Layer_1" xmlns="http://www.w3.org/2000/svg" xmlns:xlink="http://www.w3.org/1999/xlink" x="0px" y="0px"
	 viewBox="0 0 511.999 511.999" style="enable-background:new 0 0 511.999 511.999;" xml:space="preserve">
<g>
	<g>
		<path d="M511.999,255.999c0,0-51.389-64.39-112.355-64.39c8.987-23.677,13.054-43.245,13.054-43.245s-59.708-24.445-126.71,4.606
			c-33.133,13.276-66.114,32.027-93.95,49.902l-51.916-86.996L87.752,203.63L0,255.999l87.754,52.369l52.369,87.754l51.916-86.996
			c27.836,17.874,60.817,36.627,93.95,49.902c67.002,29.051,126.71,4.607,126.71,4.607s-4.068-19.568-13.054-43.247
			C460.609,320.389,511.999,255.999,511.999,255.999z M164.435,280.311l-24.313,40.741l-24.313-40.741l-40.741-24.313l40.741-24.313
			l24.313-40.741l24.313,40.741l40.741,24.313L164.435,280.311z"/>
	</g>
</g>
<g>
</g>
<g>
</g>
<g>
</g>
<g>
</g>
<g>
</g>
<g>
</g>
<g>
</g>
<g>
</g>
<g>
</g>
<g>
</g>
<g>
</g>
<g>
</g>
<g>
</g>
<g>
</g>
<g>
</g>
</svg>
