<?xml version="1.0" encoding="iso-8859-1"?>
<!-- Generator: Adobe Illustrator 16.0.0, SVG Export Plug-In . SVG Version: 6.00 Build 0)  -->
<!DOCTYPE svg PUBLIC "-//W3C//DTD SVG 1.1//EN" "http://www.w3.org/Graphics/SVG/1.1/DTD/svg11.dtd">
<svg version="1.1" id="Capa_1" xmlns="http://www.w3.org/2000/svg" xmlns:xlink="http://www.w3.org/1999/xlink" x="0px" y="0px"
	 width="183.263px" height="183.263px" viewBox="0 0 183.263 183.263" style="enable-background:new 0 0 183.263 183.263;"
	 xml:space="preserve">
<g>
	<g>
		<g>
			<path d="M103.026,171.051c-0.294-0.84-8.385-20.305-0.807-38.894c4.381-10.739,13.02-18.881,25.676-24.194
				c20.557-8.627,18.951-28.104,18.873-28.928c-0.011-0.093-0.017-0.198-0.019-0.291l-0.397-25.915
				c-28.891,18.922-53.021,15.088-68.525,8.184c-17.741-7.899-27.938-21.146-28.363-21.705c-1.169-1.539-0.869-3.735,0.67-4.904
				c1.539-1.167,3.731-0.869,4.901,0.666l0,0c0.095,0.125,9.699,12.532,25.884,19.657c21.417,9.427,43.875,5.609,66.749-11.348
				c1.053-0.782,2.455-0.909,3.634-0.326c1.177,0.581,1.931,1.771,1.95,3.084l0.498,32.407c0.166,2.47,1.041,25.724-23.146,35.874
				c-36.724,15.416-21.78,52.354-21.126,53.918c0.745,1.78-0.094,3.832-1.874,4.58C107.161,173.103,104.126,174.192,103.026,171.051
				z"/>
			<path d="M74.539,41.873c-5.388-0.749-9.373-5.136-10.056-10.275L2.819,19.375c-1.896-0.376-3.128-2.218-2.752-4.114
				c0.375-1.896,2.22-3.122,4.114-2.753l64.478,12.781c1.839,0.365,3.065,2.115,2.778,3.968c-0.42,2.722,1.448,5.296,4.171,5.698
				c4.142,0.611,5.399-2.871,5.698-4.17c0.569-2.469,3.265-3.092,4.209-2.884l24.486,5.371c1.889,0.414,3.083,2.281,2.669,4.169
				c-0.415,1.889-2.276,3.087-4.169,2.669l-21.41-4.696C86.25,37.091,83.125,43.066,74.539,41.873z"/>
			<path d="M125.751,101.192c-1.935,0-3.5-1.566-3.5-3.5v-26c0-1.933,1.565-3.5,3.5-3.5c1.934,0,3.5,1.567,3.5,3.5v26
				C129.251,99.625,127.685,101.192,125.751,101.192z"/>
			<path d="M176.968,170.815l-37-48.5c-1.172-1.537-0.877-3.732,0.66-4.906c1.538-1.174,3.731-0.877,4.905,0.66l37,48.5
				c1.173,1.537,0.916,3.787-0.659,4.904C179.626,173.067,177.656,171.717,176.968,170.815z"/>
		</g>
		<path d="M130.224,43.18c9.146,0,16.582-7.438,16.582-16.582c0-9.146-7.438-16.585-16.582-16.585s-16.584,7.438-16.584,16.585
			C113.64,35.742,121.078,43.18,130.224,43.18z M130.224,17.194c5.185,0,9.402,4.219,9.402,9.404c0,5.185-4.22,9.401-9.402,9.401
			c-5.187,0-9.404-4.217-9.404-9.401C120.819,21.413,125.038,17.194,130.224,17.194z"/>
	</g>
</g>
<g>
</g>
<g>
</g>
<g>
</g>
<g>
</g>
<g>
</g>
<g>
</g>
<g>
</g>
<g>
</g>
<g>
</g>
<g>
</g>
<g>
</g>
<g>
</g>
<g>
</g>
<g>
</g>
<g>
</g>
</svg>
