<?xml version="1.0" encoding="iso-8859-1"?>
<!-- Generator: Adobe Illustrator 19.0.0, SVG Export Plug-In . SVG Version: 6.00 Build 0)  -->
<svg version="1.1" id="Layer_1" xmlns="http://www.w3.org/2000/svg" xmlns:xlink="http://www.w3.org/1999/xlink" x="0px" y="0px"
	 viewBox="0 0 511.997 511.997" style="enable-background:new 0 0 511.997 511.997;" xml:space="preserve">
<g>
	<g>
		<g>
			<path d="M508.734,206.408c-2.9-2.161-6.897-2.122-9.764,0.081c-0.128,0.099-13.135,9.937-35.094,13.533
				c-29.458,4.824-60.369-3.259-91.861-24.03c-3.723-2.455-8.737-1.43-11.193,2.297c-2.456,3.725-1.428,8.737,2.297,11.194
				c44.046,29.049,81.07,30.347,104.375,26.317c7.359-1.272,13.849-3.136,19.379-5.158
				c-16.942,33.431-56.682,98.342-120.421,125.186c-41.272,17.385-86.456,16.198-134.36-3.497l-7.679-44.768l6.821-6.649
				c21.427,9.55,40.65,12.996,57.215,12.996c17.117-0.001,31.4-3.668,42.343-8.044c24.404-9.759,37.786-24.931,38.344-25.571
				c2.245-2.581,2.622-6.294,0.942-9.273c-1.679-2.978-5.059-4.576-8.421-3.99c-36.463,6.337-65.602-13.303-76.371-21.968
				c0.937-3.251,0.917-6.764-0.181-10.138c-2.05-6.317-7.407-10.834-13.981-11.789l-77.813-11.308l-13.081-26.504
				c22.214-9.812,93.904-35.297,160.786,8.502c1.365,0.894,2.899,1.322,4.419,1.322c2.633,0,5.216-1.286,6.766-3.654
				c2.445-3.733,1.4-8.741-2.333-11.185c-36.476-23.887-79.934-32.474-125.664-24.826c-23.262,3.889-41.486,10.976-51.142,15.319
				l-14.55-29.48c-2.938-5.957-8.888-9.659-15.529-9.659c-6.642,0-12.593,3.701-15.529,9.654l-34.8,70.511l-77.815,11.308
				c-6.572,0.956-11.929,5.473-13.979,11.786c-2.05,6.311-0.373,13.11,4.381,17.752l56.31,54.886l-13.296,77.5
				c-1.12,6.543,1.52,13.033,6.89,16.936c2.978,2.164,6.497,3.307,10.179,3.307c2.797,0,5.584-0.689,8.057-1.99l69.599-36.592
				l69.597,36.592c2.474,1.3,5.261,1.989,8.058,1.989c3.688,0,7.209-1.145,10.18-3.306c5.366-3.9,8.006-10.388,6.889-16.938
				l-2.429-14.165c24.215,8.885,47.832,13.347,70.71,13.347c23.066,0,45.388-4.518,66.822-13.56
				c49.097-20.708,84.196-61.774,104.996-92.579c22.387-33.155,33.213-61.17,33.663-62.345
				C512.757,212.383,511.634,208.57,508.734,206.408z M275.371,257.889c10.284,8.315,33.009,23.676,63.1,26.214
				c-4.145,2.467-8.953,4.914-14.378,7.036c-24.881,9.727-51.852,8.888-80.313-2.456L275.371,257.889z M221.311,388.93
				c-0.247,0.179-0.504,0.216-0.677,0.216c-0.13,0-0.331-0.023-0.539-0.133l-73.358-38.568c-2.354-1.236-5.164-1.238-7.519,0
				l-73.361,38.57c-0.321,0.166-0.694,0.292-1.216-0.088c-0.36-0.262-0.538-0.697-0.463-1.133l14.013-81.684
				c0.45-2.622-0.419-5.296-2.323-7.153L16.522,241.11c-0.316-0.308-0.432-0.776-0.296-1.194c0.135-0.415,0.501-0.723,0.933-0.786
				l82.018-11.918c2.632-0.382,4.907-2.035,6.083-4.419l36.682-74.323c0.193-0.391,0.6-0.644,1.036-0.644
				c0.442,0,0.838,0.247,1.036,0.647l36.682,74.319c1.177,2.384,3.452,4.036,6.083,4.419l82.018,11.918
				c0.438,0.065,0.796,0.365,0.935,0.793c0.135,0.414,0.019,0.878-0.294,1.184l-59.349,57.851c-1.905,1.857-2.773,4.531-2.323,7.152
				l14.009,81.677C221.852,388.228,221.675,388.666,221.311,388.93z"/>
			<path d="M315.715,133.144c0.967,0.341,1.937,0.694,2.91,1.056c0.929,0.346,1.88,0.51,2.816,0.51c3.279,0,6.363-2.011,7.573-5.265
				c1.556-4.182-0.573-8.834-4.755-10.389c-1.057-0.393-2.113-0.776-3.165-1.147c-4.208-1.488-8.822,0.719-10.308,4.929
				C309.3,127.044,311.506,131.66,315.715,133.144z"/>
			<path d="M192.503,134.703c1.129,0,2.276-0.238,3.37-0.739c0.405-0.186,41.22-18.508,95.342-7.593
				c4.376,0.883,8.635-1.95,9.517-6.324c0.882-4.374-1.949-8.635-6.323-9.517c-59.545-12.007-103.48,7.913-105.32,8.767
				c-4.043,1.874-5.797,6.665-3.93,10.71C186.521,132.964,189.447,134.703,192.503,134.703z"/>
		</g>
	</g>
</g>
<g>
</g>
<g>
</g>
<g>
</g>
<g>
</g>
<g>
</g>
<g>
</g>
<g>
</g>
<g>
</g>
<g>
</g>
<g>
</g>
<g>
</g>
<g>
</g>
<g>
</g>
<g>
</g>
<g>
</g>
</svg>
